<svg xmlns="http://www.w3.org/2000/svg" viewBox="0 0 294 228.71"><defs><style>.cls-1{fill:#ddd7d7;}.cls-2{fill:none;stroke:#000;stroke-miterlimit:10;stroke-width:3px;}.cls-3{font-size:110px;font-family:MyriadPro-Regular, Myriad Pro;}</style></defs><title>email</title><g id="Layer_1" data-name="Layer 1"><rect class="cls-1" x="1.5" y="20.21" width="291" height="207" rx="10.5" ry="10.5"/><path d="M337,85a9,9,0,0,1,9,9V280a9,9,0,0,1-9,9H67a9,9,0,0,1-9-9V94a9,9,0,0,1,9-9H337m0-3H67A12,12,0,0,0,55,94V280a12,12,0,0,0,12,12H337a12,12,0,0,0,12-12V94a12,12,0,0,0-12-12Z" transform="translate(-55 -63.29)"/></g><g id="Layer_2" data-name="Layer 2"><line class="cls-2" x1="3.77" y1="22.84" x2="147" y2="123.12"/><line class="cls-2" x1="289.15" y1="21.66" x2="147" y2="123.12"/><line class="cls-2" x1="3.77" y1="224.58" x2="128.69" y2="110.14"/><line class="cls-2" x1="290.23" y1="221.04" x2="165.31" y2="110.14"/></g><g id="Layer_3" data-name="Layer 3"><text class="cls-3" transform="translate(109.45 92.07)">@</text></g></svg>