<svg xmlns="http://www.w3.org/2000/svg" viewBox="0 0 258 386.7"><defs><style>.cls-1{fill:#33d3cf;}.cls-2{font-size:350px;fill:#fff;stroke:#000;stroke-miterlimit:10;stroke-width:2px;font-family:MonotypeCorsiva, Monotype Corsiva;}</style></defs><title>services</title><g id="Layer_1" data-name="Layer 1"><rect class="cls-1" x="0.5" y="31.42" width="257" height="278" rx="11.5" ry="11.5"/><path d="M326,61a11,11,0,0,1,11,11V327a11,11,0,0,1-11,11H92a11,11,0,0,1-11-11V72A11,11,0,0,1,92,61H326m0-1H92A12,12,0,0,0,80,72V327a12,12,0,0,0,12,12H326a12,12,0,0,0,12-12V72a12,12,0,0,0-12-12Z" transform="translate(-80 -29.08)"/></g><g id="Layer_2" data-name="Layer 2"><text class="cls-2" transform="translate(54.45 278.37)">i</text></g></svg>