<svg id="Layer_1" data-name="Layer 1" xmlns="http://www.w3.org/2000/svg" viewBox="0 0 404 404"><defs><style>.cls-1,.cls-2,.cls-3{fill:none;stroke:#000;stroke-miterlimit:10;}.cls-1{stroke-width:4px;}.cls-2{stroke-width:0.75px;}.cls-3{stroke-width:3px;}</style></defs><title>calendar</title><g id="Layer_1-2" data-name="Layer 1"><circle class="cls-1" cx="202" cy="202" r="200"/></g><g id="Layer_2" data-name="Layer 2"><rect class="cls-1" x="74.5" y="65.5" width="254" height="272" rx="12" ry="12"/></g><g id="Layer_3" data-name="Layer 3"><path class="cls-1" d="M155,42.5h0a4.5,4.5,0,0,1,4.5,4.5V60a4.5,4.5,0,0,1-4.5,4.5h0a4.5,4.5,0,0,1-4.5-4.5V47A4.5,4.5,0,0,1,155,42.5Z" transform="translate(1.5 1.5)"/><path class="cls-1" d="M246,42.5h0a4.5,4.5,0,0,1,4.5,4.5V60a4.5,4.5,0,0,1-4.5,4.5h0a4.5,4.5,0,0,1-4.5-4.5V47A4.5,4.5,0,0,1,246,42.5Z" transform="translate(1.5 1.5)"/></g><g id="Layer_4" data-name="Layer 4"><rect class="cls-2" x="89.5" y="101.5" width="50" height="40"/><line class="cls-3" x1="89.5" y1="141.5" x2="138" y2="141.5"/><line class="cls-3" x1="138.5" y1="101" x2="138.5" y2="143"/><rect class="cls-2" x="148.5" y="101.5" width="50" height="40"/><line class="cls-3" x1="148.5" y1="141.5" x2="197" y2="141.5"/><line class="cls-3" x1="197.5" y1="101" x2="197.5" y2="143"/><rect class="cls-2" x="207.5" y="100.5" width="50" height="40"/><line class="cls-3" x1="207.5" y1="140.5" x2="256" y2="140.5"/><line class="cls-3" x1="256.5" y1="100" x2="256.5" y2="142"/><rect class="cls-2" x="264.5" y="100.5" width="50" height="40"/><line class="cls-3" x1="264.5" y1="140.5" x2="313" y2="140.5"/><line class="cls-3" x1="313.5" y1="100" x2="313.5" y2="142"/><rect class="cls-2" x="89.5" y="161.5" width="50" height="40"/><line class="cls-3" x1="89.5" y1="201.5" x2="138" y2="201.5"/><line class="cls-3" x1="138.5" y1="161" x2="138.5" y2="203"/><rect class="cls-2" x="148.5" y="161.5" width="50" height="40"/><line class="cls-3" x1="148.5" y1="201.5" x2="197" y2="201.5"/><line class="cls-3" x1="197.5" y1="161" x2="197.5" y2="203"/><rect class="cls-2" x="207.5" y="160.5" width="50" height="40"/><line class="cls-3" x1="207.5" y1="200.5" x2="256" y2="200.5"/><line class="cls-3" x1="256.5" y1="160" x2="256.5" y2="202"/><rect class="cls-2" x="264.5" y="160.5" width="50" height="40"/><line class="cls-3" x1="264.5" y1="200.5" x2="313" y2="200.5"/><line class="cls-3" x1="313.5" y1="160" x2="313.5" y2="202"/><rect class="cls-2" x="89.5" y="220.5" width="50" height="40"/><line class="cls-3" x1="89.5" y1="260.5" x2="138" y2="260.5"/><line class="cls-3" x1="138.5" y1="220" x2="138.5" y2="262"/><rect class="cls-2" x="148.5" y="220.5" width="50" height="40"/><line class="cls-3" x1="148.5" y1="260.5" x2="197" y2="260.5"/><line class="cls-3" x1="197.5" y1="220" x2="197.5" y2="262"/><rect class="cls-2" x="207.5" y="219.5" width="50" height="40"/><line class="cls-3" x1="207.5" y1="259.5" x2="256" y2="259.5"/><line class="cls-3" x1="256.5" y1="219" x2="256.5" y2="261"/><rect class="cls-2" x="264.5" y="219.5" width="50" height="40"/><line class="cls-3" x1="264.5" y1="259.5" x2="313" y2="259.5"/><line class="cls-3" x1="313.5" y1="219" x2="313.5" y2="261"/><rect class="cls-2" x="89.5" y="280.5" width="50" height="40"/><line class="cls-3" x1="89.5" y1="320.5" x2="138" y2="320.5"/><line class="cls-3" x1="138.5" y1="280" x2="138.5" y2="322"/><rect class="cls-2" x="148.5" y="280.5" width="50" height="40"/><line class="cls-3" x1="148.5" y1="320.5" x2="197" y2="320.5"/><line class="cls-3" x1="197.5" y1="280" x2="197.5" y2="322"/><rect class="cls-2" x="207.5" y="279.5" width="50" height="40"/><line class="cls-3" x1="207.5" y1="319.5" x2="256" y2="319.5"/><line class="cls-3" x1="256.5" y1="279" x2="256.5" y2="321"/><rect class="cls-2" x="264.5" y="279.5" width="50" height="40"/><line class="cls-3" x1="264.5" y1="319.5" x2="313" y2="319.5"/><line class="cls-3" x1="313.5" y1="279" x2="313.5" y2="321"/></g></svg>