<svg xmlns="http://www.w3.org/2000/svg" viewBox="0 0 319 324"><defs><style>.cls-1{fill:#bababa;}.cls-2,.cls-7{fill:#fff;}.cls-3{fill:#efdfdf;}.cls-4{font-size:36px;}.cls-4,.cls-7{font-family:HighTowerText-Reg, High Tower Text;}.cls-5{fill:#e22727;}.cls-5,.cls-6{stroke:#000;stroke-miterlimit:10;}.cls-6{fill:none;}.cls-7{font-size:12px;}</style></defs><title>calendar</title><g id="Layer_1" data-name="Layer 1"><rect class="cls-1" x="0.5" y="18.5" width="318" height="305" rx="11.5" ry="11.5"/><path d="M347,40a11,11,0,0,1,11,11V333a11,11,0,0,1-11,11H52a11,11,0,0,1-11-11V51A11,11,0,0,1,52,40H347m0-1H52A12,12,0,0,0,40,51V333a12,12,0,0,0,12,12H347a12,12,0,0,0,12-12V51a12,12,0,0,0-12-12Z" transform="translate(-40 -21)"/></g><g id="Layer_2" data-name="Layer 2"><path class="cls-2" d="M79.5,56.5a3,3,0,0,1-3-3v-29a3,3,0,0,1,6,0v29A3,3,0,0,1,79.5,56.5Z" transform="translate(-40 -21)"/><path d="M79.5,22A2.5,2.5,0,0,1,82,24.5v29a2.5,2.5,0,0,1-5,0v-29A2.5,2.5,0,0,1,79.5,22m0-1A3.51,3.51,0,0,0,76,24.5v29a3.5,3.5,0,0,0,7,0v-29A3.51,3.51,0,0,0,79.5,21Z" transform="translate(-40 -21)"/><path class="cls-2" d="M59.5,56.5a3,3,0,0,1-3-3v-29a3,3,0,0,1,6,0v29A3,3,0,0,1,59.5,56.5Z" transform="translate(-40 -21)"/><path d="M59.5,22A2.5,2.5,0,0,1,62,24.5v29a2.5,2.5,0,0,1-5,0v-29A2.5,2.5,0,0,1,59.5,22m0-1A3.51,3.51,0,0,0,56,24.5v29a3.5,3.5,0,0,0,7,0v-29A3.51,3.51,0,0,0,59.5,21Z" transform="translate(-40 -21)"/><path class="cls-2" d="M99.5,56.5a3,3,0,0,1-3-3v-29a3,3,0,0,1,6,0v29A3,3,0,0,1,99.5,56.5Z" transform="translate(-40 -21)"/><path d="M99.5,22a2.5,2.5,0,0,1,2.5,2.5v29a2.5,2.5,0,0,1-5,0v-29A2.5,2.5,0,0,1,99.5,22m0-1A3.51,3.51,0,0,0,96,24.5v29a3.5,3.5,0,0,0,7,0v-29A3.51,3.51,0,0,0,99.5,21Z" transform="translate(-40 -21)"/><path class="cls-2" d="M118.5,56.5a3,3,0,0,1-3-3v-29a3,3,0,0,1,6,0v29A3,3,0,0,1,118.5,56.5Z" transform="translate(-40 -21)"/><path d="M118.5,22a2.5,2.5,0,0,1,2.5,2.5v29a2.5,2.5,0,0,1-5,0v-29a2.5,2.5,0,0,1,2.5-2.5m0-1a3.51,3.51,0,0,0-3.5,3.5v29a3.5,3.5,0,0,0,7,0v-29a3.51,3.51,0,0,0-3.5-3.5Z" transform="translate(-40 -21)"/><path class="cls-2" d="M138.5,56.5a3,3,0,0,1-3-3v-29a3,3,0,0,1,6,0v29A3,3,0,0,1,138.5,56.5Z" transform="translate(-40 -21)"/><path d="M138.5,22a2.5,2.5,0,0,1,2.5,2.5v29a2.5,2.5,0,0,1-5,0v-29a2.5,2.5,0,0,1,2.5-2.5m0-1a3.51,3.51,0,0,0-3.5,3.5v29a3.5,3.5,0,0,0,7,0v-29a3.51,3.51,0,0,0-3.5-3.5Z" transform="translate(-40 -21)"/><path class="cls-2" d="M157.5,56.5a3,3,0,0,1-3-3v-29a3,3,0,0,1,6,0v29A3,3,0,0,1,157.5,56.5Z" transform="translate(-40 -21)"/><path d="M157.5,22a2.5,2.5,0,0,1,2.5,2.5v29a2.5,2.5,0,0,1-5,0v-29a2.5,2.5,0,0,1,2.5-2.5m0-1a3.51,3.51,0,0,0-3.5,3.5v29a3.5,3.5,0,0,0,7,0v-29a3.51,3.51,0,0,0-3.5-3.5Z" transform="translate(-40 -21)"/><path class="cls-2" d="M178.5,56.5a3,3,0,0,1-3-3v-29a3,3,0,0,1,6,0v29A3,3,0,0,1,178.5,56.5Z" transform="translate(-40 -21)"/><path d="M178.5,22a2.5,2.5,0,0,1,2.5,2.5v29a2.5,2.5,0,0,1-5,0v-29a2.5,2.5,0,0,1,2.5-2.5m0-1a3.51,3.51,0,0,0-3.5,3.5v29a3.5,3.5,0,0,0,7,0v-29a3.51,3.51,0,0,0-3.5-3.5Z" transform="translate(-40 -21)"/><path class="cls-2" d="M196.5,56.5a3,3,0,0,1-3-3v-29a3,3,0,0,1,6,0v29A3,3,0,0,1,196.5,56.5Z" transform="translate(-40 -21)"/><path d="M196.5,22a2.5,2.5,0,0,1,2.5,2.5v29a2.5,2.5,0,0,1-5,0v-29a2.5,2.5,0,0,1,2.5-2.5m0-1a3.51,3.51,0,0,0-3.5,3.5v29a3.5,3.5,0,0,0,7,0v-29a3.51,3.51,0,0,0-3.5-3.5Z" transform="translate(-40 -21)"/><path class="cls-2" d="M216.5,56.5a3,3,0,0,1-3-3v-29a3,3,0,0,1,6,0v29A3,3,0,0,1,216.5,56.5Z" transform="translate(-40 -21)"/><path d="M216.5,22a2.5,2.5,0,0,1,2.5,2.5v29a2.5,2.5,0,0,1-5,0v-29a2.5,2.5,0,0,1,2.5-2.5m0-1a3.51,3.51,0,0,0-3.5,3.5v29a3.5,3.5,0,0,0,7,0v-29a3.51,3.51,0,0,0-3.5-3.5Z" transform="translate(-40 -21)"/><path class="cls-2" d="M235.5,56.5a3,3,0,0,1-3-3v-29a3,3,0,0,1,6,0v29A3,3,0,0,1,235.5,56.5Z" transform="translate(-40 -21)"/><path d="M235.5,22a2.5,2.5,0,0,1,2.5,2.5v29a2.5,2.5,0,0,1-5,0v-29a2.5,2.5,0,0,1,2.5-2.5m0-1a3.51,3.51,0,0,0-3.5,3.5v29a3.5,3.5,0,0,0,7,0v-29a3.51,3.51,0,0,0-3.5-3.5Z" transform="translate(-40 -21)"/><path class="cls-2" d="M255.5,56.5a3,3,0,0,1-3-3v-29a3,3,0,0,1,6,0v29A3,3,0,0,1,255.5,56.5Z" transform="translate(-40 -21)"/><path d="M255.5,22a2.5,2.5,0,0,1,2.5,2.5v29a2.5,2.5,0,0,1-5,0v-29a2.5,2.5,0,0,1,2.5-2.5m0-1a3.51,3.51,0,0,0-3.5,3.5v29a3.5,3.5,0,0,0,7,0v-29a3.51,3.51,0,0,0-3.5-3.5Z" transform="translate(-40 -21)"/><path class="cls-2" d="M276.5,56.5a3,3,0,0,1-3-3v-29a3,3,0,0,1,6,0v29A3,3,0,0,1,276.5,56.5Z" transform="translate(-40 -21)"/><path d="M276.5,22a2.5,2.5,0,0,1,2.5,2.5v29a2.5,2.5,0,0,1-5,0v-29a2.5,2.5,0,0,1,2.5-2.5m0-1a3.51,3.51,0,0,0-3.5,3.5v29a3.5,3.5,0,0,0,7,0v-29a3.51,3.51,0,0,0-3.5-3.5Z" transform="translate(-40 -21)"/><path class="cls-2" d="M296.5,56.5a3,3,0,0,1-3-3v-29a3,3,0,0,1,6,0v29A3,3,0,0,1,296.5,56.5Z" transform="translate(-40 -21)"/><path d="M296.5,22a2.5,2.5,0,0,1,2.5,2.5v29a2.5,2.5,0,0,1-5,0v-29a2.5,2.5,0,0,1,2.5-2.5m0-1a3.51,3.51,0,0,0-3.5,3.5v29a3.5,3.5,0,0,0,7,0v-29a3.51,3.51,0,0,0-3.5-3.5Z" transform="translate(-40 -21)"/><path class="cls-2" d="M316.5,56.5a3,3,0,0,1-3-3v-29a3,3,0,0,1,6,0v29A3,3,0,0,1,316.5,56.5Z" transform="translate(-40 -21)"/><path d="M316.5,22a2.5,2.5,0,0,1,2.5,2.5v29a2.5,2.5,0,0,1-5,0v-29a2.5,2.5,0,0,1,2.5-2.5m0-1a3.51,3.51,0,0,0-3.5,3.5v29a3.5,3.5,0,0,0,7,0v-29a3.51,3.51,0,0,0-3.5-3.5Z" transform="translate(-40 -21)"/><path class="cls-2" d="M335.5,56.5a3,3,0,0,1-3-3v-29a3,3,0,0,1,6,0v29A3,3,0,0,1,335.5,56.5Z" transform="translate(-40 -21)"/><path d="M335.5,22a2.5,2.5,0,0,1,2.5,2.5v29a2.5,2.5,0,0,1-5,0v-29a2.5,2.5,0,0,1,2.5-2.5m0-1a3.51,3.51,0,0,0-3.5,3.5v29a3.5,3.5,0,0,0,7,0v-29a3.51,3.51,0,0,0-3.5-3.5Z" transform="translate(-40 -21)"/></g><g id="Layer_3" data-name="Layer 3"><rect class="cls-3" x="32.5" y="74.5" width="255" height="232"/><path d="M327,96V327H73V96H327m1-1H72V328H328V95Z" transform="translate(-40 -21)"/></g><g id="Layer_4" data-name="Layer 4"><text class="cls-4" transform="translate(29.28 70.09)">Calendar</text></g><g id="Layer_5" data-name="Layer 5"><rect class="cls-5" x="32" y="74" width="256" height="13"/></g><g id="Layer_6" data-name="Layer 6"><line class="cls-6" x1="69.5" y1="74" x2="69.5" y2="307"/><line class="cls-6" x1="106.5" y1="74" x2="106.5" y2="307"/><line class="cls-6" x1="143.5" y1="74" x2="143.5" y2="307"/><line class="cls-6" x1="179.5" y1="74" x2="179.5" y2="307"/><line class="cls-6" x1="215.5" y1="74" x2="215.5" y2="307"/><line class="cls-6" x1="253.5" y1="74" x2="253.5" y2="307"/><line class="cls-6" x1="32" y1="278.5" x2="287" y2="278.5"/><line class="cls-6" x1="32" y1="250.5" x2="287" y2="250.5"/><line class="cls-6" x1="32" y1="220.5" x2="287" y2="220.5"/><line class="cls-6" x1="33" y1="190.5" x2="288" y2="190.5"/><line class="cls-6" x1="32" y1="162.5" x2="287" y2="162.5"/><line class="cls-6" x1="32" y1="134.5" x2="287" y2="134.5"/><line class="cls-6" x1="32" y1="108.5" x2="287" y2="108.5"/></g><g id="Layer_7" data-name="Layer 7"><text class="cls-7" transform="translate(34.14 84)">MON</text><text class="cls-7" transform="translate(75.05 84)">TUE</text><text class="cls-7" transform="translate(109.75 84)">WED</text><text class="cls-7" transform="translate(147.59 84)">THU</text><text class="cls-7" transform="translate(186.33 84)">FRI</text><text class="cls-7" transform="translate(220.58 84)">SAT</text><text class="cls-7" transform="translate(257.51 84)">SUN</text></g></svg>