<?xml version="1.0" encoding="utf-8"?>
<!-- Generator: Adobe Illustrator 21.0.2, SVG Export Plug-In . SVG Version: 6.00 Build 0)  -->
<svg version="1.1" id="Layer_1" xmlns="http://www.w3.org/2000/svg" xmlns:xlink="http://www.w3.org/1999/xlink" x="0px" y="0px"
	 viewBox="0 0 404 404" style="enable-background:new 0 0 404 404;" xml:space="preserve">
<style type="text/css">
	.st0{fill:#0394C9;stroke:#000000;stroke-width:4;stroke-miterlimit:10;}
	.st1{fill:#EFEFEF;stroke:#000000;stroke-width:4;stroke-miterlimit:10;}
	.st2{fill:#A80707;stroke:#000000;stroke-width:4;stroke-miterlimit:10;}
	.st3{fill:#C1C1C1;stroke:#000000;stroke-width:0.75;stroke-miterlimit:10;}
	.st4{fill:#C1C1C1;stroke:#000000;stroke-width:3;stroke-miterlimit:10;}
</style>
<title>calendar</title>
<g id="Layer_1-2">
	<circle class="st0" cx="202" cy="202" r="200"/>
</g>
<g id="Layer_2">
	<path class="st1" d="M86.5,65.5h230c6.6,0,12,5.4,12,12v248c0,6.6-5.4,12-12,12h-230c-6.6,0-12-5.4-12-12v-248
		C74.5,70.9,79.9,65.5,86.5,65.5z"/>
</g>
<g id="Layer_3">
	<path class="st2" d="M156.5,44L156.5,44c2.5,0,4.5,2,4.5,4.5l0,0v13c0,2.5-2,4.5-4.5,4.5l0,0c-2.5,0-4.5-2-4.5-4.5v-13
		C152,46,154,44,156.5,44L156.5,44z"/>
	<path class="st2" d="M247.5,44L247.5,44c2.5,0,4.5,2,4.5,4.5l0,0v13c0,2.5-2,4.5-4.5,4.5l0,0c-2.5,0-4.5-2-4.5-4.5v-13
		C243,46,245,44,247.5,44L247.5,44z"/>
</g>
<g id="Layer_4">
	<rect x="89.5" y="101.5" class="st3" width="50" height="40"/>
	<line class="st4" x1="89.5" y1="141.5" x2="138" y2="141.5"/>
	<line class="st4" x1="138.5" y1="101" x2="138.5" y2="143"/>
	<rect x="148.5" y="101.5" class="st3" width="50" height="40"/>
	<line class="st4" x1="148.5" y1="141.5" x2="197" y2="141.5"/>
	<line class="st4" x1="197.5" y1="101" x2="197.5" y2="143"/>
	<rect x="207.5" y="100.5" class="st3" width="50" height="40"/>
	<line class="st4" x1="207.5" y1="140.5" x2="256" y2="140.5"/>
	<line class="st4" x1="256.5" y1="100" x2="256.5" y2="142"/>
	<rect x="264.5" y="100.5" class="st3" width="50" height="40"/>
	<line class="st4" x1="264.5" y1="140.5" x2="313" y2="140.5"/>
	<line class="st4" x1="313.5" y1="100" x2="313.5" y2="142"/>
	<rect x="89.5" y="161.5" class="st3" width="50" height="40"/>
	<line class="st4" x1="89.5" y1="201.5" x2="138" y2="201.5"/>
	<line class="st4" x1="138.5" y1="161" x2="138.5" y2="203"/>
	<rect x="148.5" y="161.5" class="st3" width="50" height="40"/>
	<line class="st4" x1="148.5" y1="201.5" x2="197" y2="201.5"/>
	<line class="st4" x1="197.5" y1="161" x2="197.5" y2="203"/>
	<rect x="207.5" y="160.5" class="st3" width="50" height="40"/>
	<line class="st4" x1="207.5" y1="200.5" x2="256" y2="200.5"/>
	<line class="st4" x1="256.5" y1="160" x2="256.5" y2="202"/>
	<rect x="264.5" y="160.5" class="st3" width="50" height="40"/>
	<line class="st4" x1="264.5" y1="200.5" x2="313" y2="200.5"/>
	<line class="st4" x1="313.5" y1="160" x2="313.5" y2="202"/>
	<rect x="89.5" y="220.5" class="st3" width="50" height="40"/>
	<line class="st4" x1="89.5" y1="260.5" x2="138" y2="260.5"/>
	<line class="st4" x1="138.5" y1="220" x2="138.5" y2="262"/>
	<rect x="148.5" y="220.5" class="st3" width="50" height="40"/>
	<line class="st4" x1="148.5" y1="260.5" x2="197" y2="260.5"/>
	<line class="st4" x1="197.5" y1="220" x2="197.5" y2="262"/>
	<rect x="207.5" y="219.5" class="st3" width="50" height="40"/>
	<line class="st4" x1="207.5" y1="259.5" x2="256" y2="259.5"/>
	<line class="st4" x1="256.5" y1="219" x2="256.5" y2="261"/>
	<rect x="264.5" y="219.5" class="st3" width="50" height="40"/>
	<line class="st4" x1="264.5" y1="259.5" x2="313" y2="259.5"/>
	<line class="st4" x1="313.5" y1="219" x2="313.5" y2="261"/>
	<rect x="89.5" y="280.5" class="st3" width="50" height="40"/>
	<line class="st4" x1="89.5" y1="320.5" x2="138" y2="320.5"/>
	<line class="st4" x1="138.5" y1="280" x2="138.5" y2="322"/>
	<rect x="148.5" y="280.5" class="st3" width="50" height="40"/>
	<line class="st4" x1="148.5" y1="320.5" x2="197" y2="320.5"/>
	<line class="st4" x1="197.5" y1="280" x2="197.5" y2="322"/>
	<rect x="207.5" y="279.5" class="st3" width="50" height="40"/>
	<line class="st4" x1="207.5" y1="319.5" x2="256" y2="319.5"/>
	<line class="st4" x1="256.5" y1="279" x2="256.5" y2="321"/>
	<rect x="264.5" y="279.5" class="st3" width="50" height="40"/>
	<line class="st4" x1="264.5" y1="319.5" x2="313" y2="319.5"/>
	<line class="st4" x1="313.5" y1="279" x2="313.5" y2="321"/>
</g>
</svg>
