<?xml version="1.0" encoding="utf-8"?>
<!-- Generator: Adobe Illustrator 21.0.2, SVG Export Plug-In . SVG Version: 6.00 Build 0)  -->
<svg version="1.1" id="Layer_1" xmlns="http://www.w3.org/2000/svg" xmlns:xlink="http://www.w3.org/1999/xlink" x="0px" y="0px"
	 viewBox="0 0 403 403" style="enable-background:new 0 0 403 403;" xml:space="preserve">
<style type="text/css">
	.st0{fill:#0394C9;stroke:#000000;stroke-width:4;stroke-miterlimit:10;}
	.st1{stroke:#000000;stroke-width:4;stroke-miterlimit:10;}
	.st2{fill:#D8D8D8;stroke:#000000;stroke-width:3;stroke-miterlimit:10;}
	.st3{fill:none;stroke:#000000;stroke-width:3;stroke-miterlimit:10;}
	.st4{fill:none;stroke:#000000;stroke-miterlimit:10;}
	.st5{fill:#105B00;}
</style>
<title>contact</title>
<g id="Layer_1-2">
	<circle class="st0" cx="201.5" cy="201.5" r="199.5"/>
</g>
<g id="Layer_2">
	<path class="st1" d="M136,48h130c6.6,0,12,5.4,12,12v282c0,6.6-5.4,12-12,12H136c-6.6,0-12-5.4-12-12V60C124,53.4,129.4,48,136,48z
		"/>
</g>
<g id="Layer_3">
	<path class="st2" d="M142.5,63.5h116c6.6,0,12,5.4,12,12v236c0,6.6-5.4,12-12,12h-116c-6.6,0-12-5.4-12-12v-236
		C130.5,68.9,135.9,63.5,142.5,63.5z"/>
</g>
<g id="Layer_4">
	<circle class="st3" cx="201" cy="339" r="11"/>
</g>
<g id="Layer_5">
	<path class="st4" d="M186,54h30c1.1,0,2,0.9,2,2l0,0c0,1.1-0.9,2-2,2h-30c-1.1,0-2-0.9-2-2l0,0C184,54.9,184.9,54,186,54z"/>
</g>
<path class="st5" d="M233.2,257.5c-6.5-5.2-12-11.2-16.2-17.6c-1.4-2-3.7-3.4-6.3-2.8l-20.6,2.4c-8.9-19.4-11.3-40.9-7.1-61.8
	l20.6-2.4c2.3-0.3,4.5-1.9,5.5-4.2c2.7-7.7,6.6-14.8,11.8-21.3c2.3-2.9,1.8-7.1-1.1-9.4l-18.3-14.5c-2.9-2.3-7.1-1.8-9.4,1.1
	c-39,49.1-30.9,120.2,18.2,159.2c2.9,2.3,7.1,1.8,9.4-1.1l14.5-18.3C236.6,264,236.1,259.7,233.2,257.5z"/>
</svg>
