<svg xmlns="http://www.w3.org/2000/svg" xmlns:xlink="http://www.w3.org/1999/xlink" viewBox="0 0 304 310"><defs><style>.cls-1{fill:#0b5887;}.cls-2{stroke:#000;stroke-miterlimit:10;}</style></defs><title>contact</title><g id="Layer_1" data-name="Layer 1"><rect class="cls-1" x="23.5" y="1.5" width="208" height="274" rx="11.5" ry="11.5"/><path d="M292,84a11,11,0,0,1,11,11V346a11,11,0,0,1-11,11H107a11,11,0,0,1-11-11V95a11,11,0,0,1,11-11H292m0-1H107A12,12,0,0,0,95,95V346a12,12,0,0,0,12,12H292a12,12,0,0,0,12-12V95a12,12,0,0,0-12-12Z" transform="translate(-72 -82)"/></g><g id="Layer_3" data-name="Layer 3"><rect class="cls-2" x="22.5" y="0.5" width="23" height="275"/></g><g id="Layer_2" data-name="Layer 2"><image width="1000" height="750" transform="translate(0 1) scale(0.3 0.41)" xlink:href="../images for icons/phone.png"/></g></svg>