<svg id="Layer_1" data-name="Layer 1" xmlns="http://www.w3.org/2000/svg" viewBox="0 0 404 404"><defs><style>.cls-1{fill:none;stroke-width:4px;}.cls-1,.cls-2,.cls-3{stroke:#000;stroke-miterlimit:10;}.cls-2{fill:#fff;}.cls-2,.cls-3{stroke-width:3px;}</style></defs><title>services</title><g id="Layer_1-2" data-name="Layer 1-2"><circle class="cls-1" cx="202" cy="202" r="200"/></g><g id="Layer_2" data-name="Layer 2"><rect class="cls-2" x="163.5" y="115.5" width="75" height="257"/><path class="cls-3" d="M238,116V372H164V116h74m1-1H163V373h76Z"/></g><g id="Layer_3" data-name="Layer 3"><path class="cls-2" d="M201,101.5c-20.13,0-36.5-17.72-36.5-39.5S180.87,22.5,201,22.5,237.5,40.22,237.5,62,221.13,101.5,201,101.5Z"/><path class="cls-3" d="M201,23c19.85,0,36,17.5,36,39s-16.15,39-36,39-36-17.5-36-39,16.15-39,36-39m0-1c-20.43,0-37,17.91-37,40s16.57,40,37,40,37-17.91,37-40S221.43,22,201,22Z"/></g></svg>