<svg id="Layer_1" data-name="Layer 1" xmlns="http://www.w3.org/2000/svg" viewBox="0 0 404 404"><defs><style>.cls-1,.cls-2,.cls-3,.cls-4,.cls-5,.cls-7,.cls-8{fill:none;}.cls-1,.cls-2,.cls-3,.cls-4,.cls-5,.cls-7,.cls-8,.cls-9{stroke:#000;}.cls-1,.cls-2,.cls-7,.cls-9{stroke-miterlimit:10;}.cls-1,.cls-9{stroke-width:4px;}.cls-2{stroke-width:2px;}.cls-3,.cls-4,.cls-5,.cls-6,.cls-7,.cls-8{isolation:isolate;font-family:AgencyFB-Reg, Agency FB;}.cls-3{font-size:33px;}.cls-4{font-size:36.6px;}.cls-5{font-size:34.75px;}.cls-6,.cls-7,.cls-8{font-size:12px;}.cls-6{fill:#fff;}.cls-9{fill:#e5e5e5;}</style></defs><title>TimeTable</title><g id="Layer_1-2" data-name="Layer 1"><circle class="cls-1" cx="202" cy="202" r="200"/></g><g id="Layer_2" data-name="Layer 2"><rect class="cls-1" x="74.5" y="80.5" width="254" height="242" rx="12" ry="12"/></g><g id="Layer_5" data-name="Layer 5"><rect class="cls-2" x="110.5" y="110.5" width="218" height="212"/></g><g id="Layer_6" data-name="Layer 6"><line class="cls-2" x1="146.5" y1="110.5" x2="146.5" y2="322.5"/><line class="cls-2" x1="182.5" y1="110" x2="182.5" y2="322"/><line class="cls-2" x1="256.5" y1="110" x2="256.5" y2="322"/><line class="cls-2" x1="220.5" y1="110" x2="220.5" y2="322"/><line class="cls-2" x1="291.5" y1="111" x2="291.5" y2="323"/></g><g id="Layer_7" data-name="Layer 7"><line class="cls-2" x1="110.5" y1="153.5" x2="328.5" y2="153.5"/><line class="cls-2" x1="110" y1="197.5" x2="328" y2="197.5"/><line class="cls-2" x1="111" y1="242.5" x2="329" y2="242.5"/><line class="cls-2" x1="110" y1="286.5" x2="328" y2="286.5"/></g><g id="Layer_8" data-name="Layer 8"><text class="cls-3" transform="translate(79.5 146) scale(1.77 1)">M</text><text class="cls-4" transform="translate(84.5 188.28) scale(1.55 1)">T</text><text class="cls-4" transform="translate(84.5 278.28) scale(1.55 1)">T</text><text class="cls-3" transform="translate(81 234.5) scale(1.53 1)">W</text><text class="cls-5" transform="translate(85 315.65) scale(1.69 1)">F</text><text class="cls-6" transform="translate(116.5 105.5)">09:00</text><text class="cls-7" transform="translate(116.5 105.5)">09:00</text><text class="cls-8" transform="translate(155 105)">10:00</text><text class="cls-8" transform="translate(191.5 105.33)">11:00</text><text class="cls-8" transform="translate(227.5 105)">12:00</text><text class="cls-8" transform="translate(300.5 104.83)">14:00</text><text class="cls-8" transform="translate(263 104.33)">13:00</text></g><g id="Layer_3" data-name="Layer 3"><ellipse class="cls-9" cx="289.5" cy="288.5" rx="62" ry="64"/></g><g id="Layer_4" data-name="Layer 4"><rect x="289" y="232" width="3" height="57"/><rect x="290" y="286" width="36" height="3"/></g></svg>