<svg xmlns="http://www.w3.org/2000/svg" xmlns:xlink="http://www.w3.org/1999/xlink" viewBox="0 0 977 907">
    <defs>
        <style>
        </style>
    </defs>
    <title>map</title>
    <g id="GreenLayer_main"><path class="cls-1" d="M.5,420.5l107,22,174,43,201,44,48,19,85-5,49-82,129-171,5-7s11-12-5-17l-95-41s-7-5-11,3l-62,78-155-100-69-21,1-54h-47l-61-18,3-47-131-29s-10-3-10,11l1,87-16,44-92-24-10,63-20,154-19,10Z" transform="translate(6 335)"/>
        <g id="block_p"><polygon class="cls-1" points="163.5 578.5 174.5 538.5 216.5 548.5 213.5 562.5 221.5 564.5 217.5 583.5 207.5 581.5 205.5 589.5 163.5 578.5"/></g>
    </g>
    <g id="GreenLayer_top"><path class="cls-1" d="M662.5,198.5l140,59,28-13,121-166-67-58-23,20-16-17s5,24-24,33a417.84,417.84,0,0,1-91.33.41l-3.67-.41-10-2-74-55h-44l3,38s1,13-11,15l47,53s12,16,4,42l-11,28,6,3s3,13,14,8S662.5,198.5,662.5,198.5Z" transform="translate(6 335)"/></g>

</svg>
