<svg xmlns="http://www.w3.org/2000/svg" viewBox="0 0 960 560"><defs><style>.cls-1{fill:#52b552;stroke:#000;stroke-miterlimit:10;}</style></defs><title>Artboard 1</title><g id="GreenLayer_main"><path class="cls-1" d="M.5,420.5l107,22,174,43,201,44,48,19,85-5,49-82,129-171,5-7s11-12-5-17l-95-41s-7-5-11,3l-62,78-155-100-69-21,1-54h-47l-61-18,3-47-131-29s-10-3-10,11l1,87-16,44-92-24-10,63-20,154-19,10Z"/></g><g id="GreenLayer_top"><path class="cls-1" d="M662.5,198.5l140,59,28-13,121-166-67-58-23,20-16-17s5,24-24,33a417.84,417.84,0,0,1-91.33.41l-3.67-.41-10-2-74-55h-44l3,38s1,13-11,15l47,53s12,16,4,42l-11,28,6,3s3,13,14,8S662.5,198.5,662.5,198.5Z"/></g></svg>