<svg xmlns="http://www.w3.org/2000/svg" version="1.1" width="1000" height="1000">
    <svg xmlns="http://www.w3.org/2000/svg" version="1.1" width="100%" height="100%" viewbox="0 0 959 593">
        <svg xmlns="http://www.w3.org/2000/svg" viewBox="0 0 952.17 550.01">
            <defs>
            </defs>
            <title>map</title>
            <g id="GreenLayer_main">
                <path class="cls-1" d="M.5,420.5l107,22,174,43,201,44,48,19,85-5,49-82,129-171,5-7s11-12-5-17l-95-41s-7-5-11,3l-62,78-155-100-69-21,1-54h-47l-61-18,3-47-131-29s-10-3-10,11l1,87-16,44-92-24-10,63-20,154-19,10Z"
                    transform="translate(0 1)" />
                <g id="gateway">
                    <path class="cls-2" d="M654.81,440.4,638,429l-77-32s-14-4-26,8-36.5,47.89-36.5,47.89L506,460l35,23,18,19,13,18,6,11,9,7h8l14,1h6l3.89-1.08L662,466S666.62,445.79,654.81,440.4Z"
                        transform="translate(0 1)" />
                </g>
                <g id="River" ng-click="blockClick()">
                    <path class="cls-3" d="M616,543l4.07-7.15L584,534l-5-11s-17-30-32-38l-34-26s-9-5-12-4l-13-11s-3-4-7-3c0,0-4,1,0-4,0,0,8-11-4-16,0,0-15-1-14,12,0,0,0,6-7,6s-22,1-22,1-7-2-10-7c0,0-2-16-22-17,0,0-27,0-32,14l-9,18s1,4-11,6l-32,10s-21,4-30-1l-37-10-39-12-39-9s-9.63-3.34-44.82-3.17L102,423s-53-16-57-25-17-15-17-15-15-8-28,0c0,0,15-1,20,3,0,0,22,22,27,22,0,0,25,18,52,22s37,5,37,5l30,1s52,10,72,20,56,22,79,18c0,0,49-22,85-22,0,0,23-6,37-4s21-4,21-4a6.91,6.91,0,0,1,9,2c4,5,13,2,13,2l17,12s32,12,61,46l20,32Z"
                        transform="translate(0 1)" />
                </g>
                <g id="road_main">
                    <path class="cls-2" d="M416.17,515s14.33,3.52,23.33-11.48c0,0,5-10,5-20l-4-64,8-11s6-3-16-14l-34-24s-11-8-9-33L389,313l7.5.5v41s-1,4,27,24l29,20a4.74,4.74,0,0,0,6-1l39-50,5-1,3,3-8,14s-2,2,3,6c0,0,22,11,39,11h19l10-4,7,2,13,4,7,3,5,3h6s7,0,13,11v2l13,10,30,26s7,3.35,21.48-1.83L661.84,466s3.66-10.45-3.34-22.45l-44-37-16-13s-15-13-37-5l-40-2-28-14s-2-2-5,3l-35,41s-4,4-4,12l2,34s2,32-5,48l19,15.27"
                        transform="translate(0 1)" />
                </g>
                <g id="parking">
                    <polygon class="cls-2" points="396.5 314.5 398.5 312.5 404.5 312.5 404.5 320.5 430.5 327.5 434.5 319.5 418.5 314.5 416.5 278.5 401.5 278.5 401.5 306.5 389.5 306.5 395.5 272.5 393.5 267.5 329.5 223.5 244.5 202.5 192 190 195 182 189 182 191 174 178 171 176 181 171 181 171 185 164 183 148 245 157 249 157 261 161 262 167 253 228 266 231 274 385 312 389 314 396.5 314.5"
                    />
                    <path class="cls-2" d="M401,357l2-34,37,9,29-35-11.12-9.87L449,295l-40-25-14,1-2-5,10-1,17-17-51-36-19.39,24.32-5.32-3.65L387,182l-7-7s0-4,11-3a8,8,0,0,0,5-9l-.25-31.5L402,131l-1,54,71.13,22.55,30.76,19.85L477,268l5,8,4-4h3v-8s-3-4,6-12l13-14,4,2-17,18,42,32,7-7,4.5,4.5L544,295l9,6,7.64-.31L564,305l-10,13h-4l-6,6,20,15,6-7,6,4,4-5,6,3,5-6,5,6,10-11,6.5,3.81L602,344l16,11,9-10,12,9-26,32,24,18,6-7,12,10,59-76-5-3,5-6,9,8s5,5-6,9l-5,3s3,5-2,11c0,0-3,9-10,10v12s0,5-12,6a34,34,0,0,1-13,20s-2,16-12,19c0,0-3.45,13.66,2.77,18.33L631,415l-19-19-20-8-19-7-16,3-33-1-14-5-12-6-13-8.5L458,400a13.73,13.73,0,0,1-10-2,214.41,214.41,0,0,1-47.93-38.4Z"
                        transform="translate(0 1)" />
                    <path class="cls-2" d="M674,305l18-17,10,7,8,6,3-4-11.67-9.8L723,258l26,18-4,4,12,9-27,35-7.23-4.26-2.55,7.79,3.66,6.53L732,331s-3-3-1-4l30-37-14-29,8-11.14L734.5,241,722,246l-11-5s-9-3-15-1c0,0-2.56-8.95,3.72-14l-2.82-1.38-4-.63-2.39.89-2.13,2.15L689,249s7,13,5,20l-23-19.69-27,34,6,6.73,11,9-3,5,10,6Z"
                        transform="translate(0 1)" />
                    <path class="cls-2" d="M388,365" transform="translate(0 1)" />
                    <path class="cls-2" d="M211,269l12,3,6.5-3L384,307,349,413l-8-2-8,27L188,402l7-27-5-1-14,43-44,1-4,4,.69,25.74-6.44-1.59L123,417s-1-5,16-3l4-2,39-31Z"
                        transform="translate(0 1)" />
                    <path class="cls-2" d="M511.5,381.5s.5,6.5-2.5,8.5l-16-10-20,25,15,10-1,21,8,8,38-42-15-10,4.36-5.46Z"
                        transform="translate(0 1)" />
                    <path class="cls-2" d="M128.67,428.83" transform="translate(0 1)" />
                </g>
                <g id="block_p" class="blocks">
                    <polygon ng-click="blockClick()" class="blocks" points="157.5 244.5 168.5 204.5 210.5 214.5 207.5 228.5 215.5 230.5 211.5 249.5 201.5 247.5 199.5 255.5 157.5 244.5"
                    />
                </g>
                <g id="block_m" class="blocks">
                    <polygon class="blocks" points="379.5 208.5 395.5 187.5 444.5 220.5 428.5 241.5 379.5 208.5" />
                </g>
                <g id="block_f" class="blocks">
                    <polygon class="blocks" points="436.63 230.83 447.5 238.5 469.5 211.5 499.5 233.5 473.5 267.5 430.61 238.73 436.63 230.83"
                    />
                </g>
                <g id="block_g" class="blocks">
                    <polygon class="blocks" points="432.5 315.5 439.5 307.5 437.5 305.5 439.5 303.5 446.5 308.5 452.5 302.5 444.5 295.5 446.5 293.5 449.5 296.5 463.5 282.5 457.5 278.5 468.82 264.36 461.77 259.63 450.5 273.5 422.5 253.5 410.5 265.5 440.5 287.5 431.5 298.5 427.5 295.5 420.5 304.5 432.5 315.5"
                    />
                </g>
                <g id="block_e" class="blocks">
                    <polygon class="blocks" points="489.01 247.22 499.5 254.5 494.5 260.5 536.5 291.5 543.5 284.5 548.5 288.5 552.5 285.5 557.5 288.5 566.5 277.5 511.5 241.5 502.5 251.5 491.48 243.99 489.01 247.22"
                    />
                </g>
                <g id="block_a" class="blocks">
                    <polygon class="blocks" points="566.5 277.5 615.5 309.5 609.5 318.5 621.5 326.5 618.5 331.5 605.5 323.5 595.5 334.5 590.5 330.5 585.5 336.5 579.5 332.5 575.5 337.5 569.5 333.5 564.5 340.5 544.5 325.5 549.5 319.5 553.5 319.5 563.5 306.5 562.5 301.5 552.5 302.5 543.5 296.5 549.35 287.86 552.5 285.5 557.5 288.5 566.5 277.5"
                    />
                </g>
                <g id="block_h" class="blocks">
                    <polygon class="blocks" points="511.5 355.5 524.5 339.5 528.5 343.5 534.5 335.5 546.5 342.5 551.5 342.5 566.5 353.5 556.5 365.5 548.5 359.5 541.5 368.5 541.5 373.5 539.5 376.5 533.5 372.5 535.5 370.5 511.5 355.5"
                    />
                </g>
                <g id="block_j" class="blocks">
                    <polygon class="blocks" points="601.5 348.5 579.5 375.5 585.5 380.5 589.5 376.5 595.5 380.5 612.5 362.5 604.5 355.5 606.5 352.5 601.5 348.5"
                    />
                </g>
                <g id="block_b" class="blocks">
                    <polygon class="blocks" points="601.5 344.5 613.37 328.34 618.5 331.5 621.5 326.5 650.5 291.5 661.5 300.5 658.5 305.5 668.5 311.5 674.5 306.5 686.5 313.5 684.5 322.5 694.5 329.5 702.5 324.5 714.5 332.5 655.5 408.5 643.5 398.5 637.5 405.5 612.5 386.5 638.5 354.5 626.5 345.5 618.5 356.5 601.5 344.5"
                    />
                </g>
                <g id="block_c" class="blocks">
                    <polygon ng-click="regionClick()" class="blocks" points="702.5 296.5 685.36 318.62 684.5 322.5 694.5 329.5 702.5 324.5 708.99 328.83 717.5 317.5 710.5 312.5 719.5 301.5 713.5 298.5 710.5 302.5 702.5 296.5"
                    />
                </g>
                <g id="block_d" class="blocks">
                    <polygon class="blocks" points="723.5 259.5 748.5 276.5 745.5 281.5 757.5 290.5 730.5 325.5 717.5 317.5 710.5 312.5 719.5 301.5 713.5 298.5 700.5 287.5 723.5 259.5"
                    />
                </g>
                <g id="gaelicpitch">
                    <polygon class="cls-5" points="218 281 375 320 348 411 191 371 218 281" />
                    <polygon class="cls-5" points="222 286 369 323 343 405 197 369 212.37 317.98 222 286" />
                    <path class="cls-5" d="M226.5,320.5l-14.42-2.57-5.33,17.7,13.75,4.87Z" transform="translate(0 1)" />
                    <polyline class="cls-5" points="235.41 289.38 211.07 372.47 216.66 373.85 241.93 291.02 267.63 297.49 242.04 380.11 269.24 386.81 295.15 304.41 323.31 311.5 298.08 393.93 322.16 399.86 347.77 317.66 355.01 319.48 330.87 402.01"
                    />
                    <line class="cls-6" x1="358.82" y1="355.1" x2="345.68" y2="351.38" />
                    <line class="cls-6" x1="353.01" y1="373.42" x2="340.34" y2="369.63" />
                </g>
                <g id="running">
                    <path class="cls-6" d="M48.5,263.5s33-46,84-13l7,4,6,17h5l24,77-4,4,6,20s0,6-4,9l-18,16s-36,34-85-7l-4-5-30-97S30.5,273.5,48.5,263.5Z"
                        transform="translate(0 1)" />
                    <path class="cls-7" d="M74.5,376.5l-26-82s-8.94-38.34,28-52.17,59,14.17,59,14.17l10,20,25,76s6.12,36.28-28.94,53.14c0,0-44.06,18.86-64.06-19.14Z"
                        transform="translate(0 1)" />
                    <path class="cls-5" d="M59.5,288.5s-6-23,24-34,44,14,44,14l30,93s7,23-24,35-45-14-45-14Z" transform="translate(0 1)"
                    />
                    <polygon class="cls-5" points="91.5 382.5 62.5 289.5 125.5 271.5 156.5 364.5 103.25 379.25 91.5 382.5"
                    />
                    <polygon class="cls-5" points="100.5 365.5 140.5 353.5 145.22 367.63 103.5 379.5 100.5 365.5" />
                    <polygon class="cls-5" points="114.5 371.5 114.5 376.13 132.75 371 131.5 366.5 114.5 371.5" />
                    <path class="cls-5" d="M113.44,360.62s3.39-11.72,14.72-4.42" transform="translate(0 1)" />
                    <line class="cls-5" x1="77.02" y1="336.07" x2="140.75" y2="317.25" />
                    <path class="cls-8" d="M105.5,316.5s11.39-2.88,12.19,6.56-6.19,10.44-6.19,10.44-9,3.43-12.5-4.29S105.5,316.5,105.5,316.5Z"
                        transform="translate(0 1)" />
                    <polygon class="cls-8" points="73.76 286.28 77.5 300.5 117.5 289.5 113.44 274.95 84.19 283.3 73.76 286.28"
                    />
                    <polygon class="cls-8" points="85.5 287.5 103.5 282.5 103.5 277.79 84.5 282.5 85.5 287.5" />
                    <path class="cls-8" d="M91.54,295.64l14.14-3.89S102.58,301.78,91.54,295.64Z" transform="translate(0 1)"
                    />
                </g>
                <g id="Astro">
                    <polygon class="cls-5" points="43 215 55.98 174.45 59 165 156 190 141 240 91.54 227.38 43 215" />
                    <polygon class="cls-5" points="74 179 62 209 46.36 204.5 56 174 74 179" />
                    <line class="cls-5" x1="108.01" y1="177.63" x2="92" y2="227" />
                    <polyline class="cls-5" points="143.37 232.11 128 227 138 196 153.25 199.17 142.92 233.61" />
                    <polyline class="cls-5" points="145 223 138 221 145 207 150.3 209" />
                    <polygon class="cls-5" points="53 184.33 59 184 53 199 49.08 196 53 184.33" />
                    <path class="cls-8" d="M91.5,199.5s2.1-8,10.55-4.5,6.45,10.5,6.45,10.5-5.37,9.22-11.19,4.11C97.31,209.61,90.5,207.5,91.5,199.5Z"
                        transform="translate(0 1)" />
                </g>
            </g>
            <g id="GreenLayer_top">
                <path class="cls-6" d="M662.5,198.5l140,59,28-13,121-166-67-58-23,20-16-17s5,24-24,33a417.84,417.84,0,0,1-91.33.41l-3.67-.41-10-2-74-55h-44l3,38s1,13-11,15l47,53s12,16,4,42l-11,28,6,3s3,13,14,8S662.5,198.5,662.5,198.5Z"
                    transform="translate(0 1)" />
            </g>
        </svg>